<svg width="133" height="200" viewBox="0 0 20 30" fill="none" xmlns="http://www.w3.org/2000/svg">
<g clip-path="url(#clip0_348_961)">
<path d="M9.99999 0.438965C4.06097 9.21945 0.243896 14.7073 0.243896 20.0365C0.243896 25.3658 4.60975 29.7073 9.99999 29.7073C15.3902 29.7073 19.7561 25.378 19.7561 20.0365C19.7561 14.6951 15.939 9.20726 9.99999 0.438965Z" fill="url(#paint0_linear_348_961)" stroke="#2885C7" stroke-width="1.82484" stroke-miterlimit="10"/>
</g>
<path d="M5.47562 14.3281C5.86587 13.9622 6.42278 13.7793 7.14636 13.7793C7.86993 13.7793 8.42278 13.9622 8.80489 14.3281C9.19514 14.6858 9.39026 15.1899 9.39026 15.8403V16.8159C9.39026 17.45 9.19514 17.946 8.80489 18.3037C8.41465 18.6614 7.8618 18.8403 7.14636 18.8403C6.41465 18.8403 5.85774 18.6614 5.47562 18.3037C5.09351 17.946 4.89839 17.45 4.89026 16.8159V15.8403C4.89026 15.1899 5.08538 14.6858 5.47562 14.3281ZM14.1586 14.133C14.1737 14.1877 14.1749 14.2454 14.1622 14.3008C14.1494 14.3561 14.123 14.4074 14.0854 14.45L7.62197 23.3891C7.53368 23.5258 7.41728 23.6422 7.2805 23.7305C7.09985 23.7903 6.90947 23.8151 6.71953 23.8037H6.18294C6.02441 23.8037 5.92684 23.7549 5.87806 23.6695C5.85995 23.6102 5.85832 23.5471 5.87336 23.487C5.8884 23.4268 5.91954 23.3719 5.96343 23.3281L12.4268 14.3891C12.5006 14.2525 12.6103 14.1387 12.7439 14.0598C12.9178 14.0082 13.0994 13.9876 13.2805 13.9988H13.8781C14.0244 13.9988 14.122 14.0476 14.1586 14.133ZM7.14636 15.0598C6.52034 15.0598 6.20733 15.3443 6.20733 15.9134V16.7305C6.20733 17.2996 6.52034 17.5842 7.14636 17.5842C7.77237 17.5842 8.08538 17.2996 8.08538 16.7305V15.9012C8.08538 15.3403 7.77237 15.0598 7.14636 15.0598ZM11.2195 19.4988C11.6016 19.133 12.1586 18.95 12.8903 18.95C13.622 18.95 14.1748 19.133 14.5488 19.4988C14.939 19.8647 15.1342 20.3687 15.1342 21.011V21.9866C15.1342 22.6208 14.939 23.1167 14.5488 23.4744C14.1586 23.8321 13.6016 24.0151 12.8781 24.0232C12.1545 24.0232 11.6016 23.8443 11.2195 23.4866C10.8374 23.1289 10.6423 22.6289 10.6342 21.9866V21.011C10.6342 20.3606 10.8293 19.8565 11.2195 19.4988ZM12.8781 20.2427C12.2602 20.2427 11.9512 20.5273 11.9512 21.0964V21.9012C11.9512 22.4704 12.2602 22.7549 12.8781 22.7549C13.4959 22.7549 13.809 22.4704 13.8171 21.9012V21.0842C13.8171 20.5232 13.5041 20.2427 12.8781 20.2427Z" fill="white"/>
<defs>
<linearGradient id="paint0_linear_348_961" x1="1.80487" y1="5.15848" x2="15.1463" y2="28.256" gradientUnits="userSpaceOnUse">
<stop stop-color="#3392D6"/>
<stop offset="0.5" stop-color="#3392D6"/>
<stop offset="1" stop-color="#2477B2"/>
</linearGradient>
<clipPath id="clip0_348_961">
<rect width="20" height="29.9512" fill="white"/>
</clipPath>
</defs>
</svg>
