<svg width="150" height="150" viewBox="0 0 24 25" fill="none" xmlns="http://www.w3.org/2000/svg">
<path d="M10.6667 1.38889C10.6667 1.38889 10.6667 0 12 0C13.3333 0 13.3333 1.38889 13.3333 1.38889V2.77778C13.3333 2.77778 13.3333 4.16667 12 4.16667C10.6667 4.16667 10.6667 2.77778 10.6667 2.77778V1.38889ZM22.6667 11.1111C22.6667 11.1111 24 11.1111 24 12.5C24 13.8889 22.6667 13.8889 22.6667 13.8889H21.3333C21.3333 13.8889 20 13.8889 20 12.5C20 11.1111 21.3333 11.1111 21.3333 11.1111H22.6667ZM2.66667 11.1111C2.66667 11.1111 4 11.1111 4 12.5C4 13.8889 2.66667 13.8889 2.66667 13.8889H1.33333C1.33333 13.8889 0 13.8889 0 12.5C0 11.1111 1.33333 11.1111 1.33333 11.1111H2.66667ZM6.08067 5.06458C6.08067 5.06458 7.02333 6.04653 6.08067 7.02847C5.138 8.01042 4.19533 7.02847 4.19533 7.02847L3.252 6.04722C3.252 6.04722 2.30933 5.06528 3.252 4.08264C4.19533 3.10069 5.138 4.08264 5.138 4.08264L6.08067 5.06458ZM19.8053 7.02847C19.8053 7.02847 18.8627 8.01042 17.92 7.02847C16.9773 6.04653 17.92 5.06458 17.92 5.06458L18.8627 4.08264C18.8627 4.08264 19.8053 3.10069 20.748 4.08264C21.6907 5.06458 20.748 6.04653 20.748 6.04653L19.8053 7.02847ZM5.80533 21.6118C5.80533 21.6118 4.86267 22.5937 3.92 21.6118C2.97733 20.6299 3.92 19.6479 3.92 19.6479L4.86267 18.666C4.86267 18.666 5.80533 17.684 6.748 18.666C7.69067 19.6479 6.748 20.6299 6.748 20.6299L5.80533 21.6118Z" fill="#FFAC33"/>
<path d="M12 19.4443C15.6819 19.4443 18.6667 16.3352 18.6667 12.4999C18.6667 8.66455 15.6819 5.55542 12 5.55542C8.31811 5.55542 5.33334 8.66455 5.33334 12.4999C5.33334 16.3352 8.31811 19.4443 12 19.4443Z" fill="#FFAC33"/>
<path d="M19.8513 16.1111C19.4233 16.1111 19.0113 16.1806 18.6227 16.3091C18.164 14.9007 16.916 13.8889 15.4447 13.8889C13.866 13.8889 12.5447 15.0542 12.1787 16.6229C11.788 16.3063 11.306 16.1118 10.778 16.1118C9.48934 16.1118 8.44468 17.2306 8.44468 18.6118C8.44468 18.9472 8.50868 19.2653 8.62068 19.5584C8.39801 19.491 8.16801 19.4445 7.92601 19.4445C6.49401 19.4445 5.33334 20.6882 5.33334 22.2222C5.33334 23.7563 6.49401 25 7.92601 25H19.852C22.1427 25 24 23.0111 24 20.5556C24 18.1007 22.1427 16.1111 19.8513 16.1111Z" fill="#E1E8ED"/>
</svg>
