<svg width="150" height="150" viewBox="0 0 30 31" fill="none" xmlns="http://www.w3.org/2000/svg">
<path d="M14.9969 0H14.9291C14.6353 0 14.3967 0.23856 14.3967 0.532366V1.64983C14.3967 1.94364 14.6353 2.1822 14.9291 2.1822H14.9969C15.2907 2.1822 15.5293 1.94364 15.5293 1.64983V0.534877C15.5293 0.23856 15.2907 0 14.9969 0Z" fill="#616161"/>
<path d="M15.704 23.7832L14.2124 23.783L14.2144 9.24088L15.706 9.24108L15.704 23.7832Z" fill="#E0E0E0"/>
<path opacity="0.2" d="M14.4645 9.49184H15.4539L15.4514 23.5945H14.462L14.4645 9.49184ZM14.2134 9.24072L14.2109 23.8456H15.7025L15.705 9.24072H14.2134Z" fill="#424242"/>
<path d="M16.0141 27.1585V22.7188H13.7766V27.1585C13.7766 27.5703 13.4426 27.9043 13.0308 27.9043C12.619 27.9043 12.285 27.5703 12.285 27.1585V26.7843C12.285 26.1666 11.7853 25.6643 11.165 25.6643C10.5473 25.6643 10.045 26.1641 10.045 26.7843V27.1585C10.045 28.8058 11.381 30.1417 13.0283 30.1442C14.6781 30.1417 16.0141 28.8058 16.0141 27.1585Z" fill="#616161"/>
<path opacity="0.2" d="M14.2789 23.2181H15.5118V27.1555C15.5118 28.5241 14.3994 29.6366 13.0283 29.6366C12.3654 29.6366 11.7426 29.3779 11.273 28.9083C10.8034 28.4387 10.5473 27.816 10.5473 27.153V26.7789C10.5473 26.4399 10.8235 26.1611 11.165 26.1611C11.504 26.1611 11.7828 26.4374 11.7828 26.7789V27.153C11.7828 27.487 11.9133 27.8009 12.1494 28.037C12.3854 28.273 12.6993 28.4036 13.0308 28.4036C13.7189 28.4036 14.2789 27.8436 14.2789 27.1555V23.2181ZM13.7766 22.7158V27.1555C13.7766 27.5674 13.4426 27.9014 13.0308 27.9014C12.619 27.9014 12.285 27.5674 12.285 27.1555V26.7814C12.285 26.1636 11.7853 25.6614 11.165 25.6614C10.5473 25.6614 10.045 26.1611 10.045 26.7814V27.1555C10.045 28.8029 11.381 30.1388 13.0283 30.1413C14.6756 30.1413 16.0116 28.8054 16.0116 27.1581V22.7183L13.7766 22.7158Z" fill="#424242"/>
<path d="M3.83225 12.9454C5.38917 12.9454 6.72259 13.9549 7.2876 15.3887C7.39056 15.6524 7.74714 15.6524 7.85261 15.3887C8.41762 13.9523 9.74854 12.9454 11.308 12.9454C12.8649 12.9454 14.1983 13.9549 14.7633 15.3887C14.8663 15.6524 15.2229 15.6524 15.3283 15.3887C15.8933 13.9523 17.2243 12.9454 18.7837 12.9454C20.3406 12.9454 21.674 13.9549 22.239 15.3887C22.342 15.6524 22.6986 15.6524 22.8041 15.3887C23.3691 13.9523 24.7 12.9454 26.2594 12.9454C27.3919 12.9454 28.4064 13.4802 29.092 14.324C29.3004 14.5801 29.6972 14.3868 29.6344 14.0528C28.2859 6.75286 22.2491 1.13037 15.0019 1.13037C7.71701 1.13037 1.65256 6.82066 0.354294 14.1834C0.294026 14.5224 0.700834 14.7132 0.901726 14.4445C1.58727 13.5305 2.64447 12.9454 3.83225 12.9454Z" fill="url(#paint0_linear_348_1001)"/>
<path opacity="0.2" d="M29.627 14.0548C28.3036 6.84022 22.3924 1.26796 15.2607 1.13487C15.1904 1.11478 15.1477 1.10473 15.1326 1.09971C15.0623 1.08213 14.9945 1.0972 14.9367 1.12984C7.67949 1.165 1.6502 6.84273 0.354442 14.1828C0.314264 14.4114 0.485022 14.5721 0.660803 14.5721C0.748694 14.5721 0.836585 14.5344 0.901875 14.444C1.58742 13.5299 2.64462 12.9448 3.8324 12.9448C5.38932 12.9448 6.72274 13.9543 7.28775 15.3882C7.31286 15.4485 7.35053 15.4962 7.39573 15.5288C7.44596 15.6695 7.53636 15.8151 7.63931 15.8151H7.64434C7.80254 15.8151 7.9281 15.4836 7.92559 15.3355V15.2225C8.52575 13.8765 9.81147 12.9448 11.3081 12.9448C12.865 12.9448 14.1985 13.9543 14.7635 15.3882C14.8162 15.5213 14.9317 15.5866 15.0447 15.5866C15.1602 15.5866 15.2757 15.5213 15.326 15.3882C15.891 13.9518 17.2219 12.9448 18.7813 12.9448C20.3382 12.9448 21.6717 13.9543 22.2367 15.3882C22.2693 15.4711 22.3296 15.5263 22.3974 15.5564C22.4426 15.6895 22.528 15.8151 22.6234 15.8151C22.7816 15.8151 22.9097 15.4761 22.9097 15.3279C22.9097 15.3078 22.9097 15.24 22.9072 15.1371C23.5224 13.8388 24.788 12.9474 26.252 12.9474C27.3846 12.9474 28.3991 13.4822 29.0846 14.326C29.1524 14.4089 29.2378 14.444 29.3207 14.444C29.499 14.444 29.6672 14.2808 29.627 14.0548ZM3.8324 12.1915C2.956 12.1915 2.11728 12.4552 1.4016 12.9373C2.18005 10.0419 3.76208 7.42281 5.93675 5.45406C7.97581 3.60836 10.4468 2.43062 13.0458 2.03386C11.9485 2.7169 10.5774 3.87705 9.45488 5.79055C7.88541 8.46494 7.48362 12.0961 7.38318 14.0221C6.54696 12.8821 5.24869 12.1915 3.8324 12.1915ZM11.3056 12.1915C10.0098 12.1915 8.81203 12.7716 7.97832 13.7409C8.10639 11.7721 8.53329 8.38458 9.95962 5.95378C11.4136 3.47527 13.3346 2.35278 14.3793 1.89826C14.5174 1.89072 14.653 1.89072 14.7911 1.88821V13.9292C13.9473 12.8469 12.6817 12.1915 11.3056 12.1915ZM18.7763 12.1915C17.3952 12.1915 16.127 12.8494 15.2883 13.9368V1.88821C15.4013 1.89072 15.5143 1.89324 15.6248 1.89826C16.6343 2.33269 18.6583 3.47024 20.1775 6.05674C21.6516 8.56538 22.1187 12.0358 22.2668 13.9393C21.4281 12.8519 20.16 12.1915 18.7763 12.1915ZM26.2495 12.1915C24.9111 12.1915 23.6781 12.8067 22.8394 13.8363C22.6887 11.8525 22.2116 8.2992 20.6798 5.69262C19.6175 3.88458 18.3293 2.7621 17.2596 2.08157C22.6033 3.01823 27.0556 7.2194 28.5874 12.8821C27.8918 12.4351 27.0857 12.1915 26.2495 12.1915Z" fill="#424242"/>
<path d="M5.16334 4.59577C5.15329 5.72077 4.36228 6.62479 3.39297 6.61725C2.42366 6.60972 1.6452 5.69064 1.65525 4.56815C1.66529 3.44566 3.35279 0.339355 3.35279 0.339355C3.35279 0.339355 5.17087 3.47328 5.16334 4.59577Z" fill="#81D4FA"/>
<path opacity="0.2" d="M3.36525 1.39906C3.98551 2.55922 4.66603 4.0182 4.66101 4.59075C4.65348 5.43198 4.09098 6.11502 3.39539 6.11502C3.07396 6.11251 2.77011 5.95933 2.53908 5.68561C2.28797 5.3893 2.15236 4.99504 2.15487 4.57066C2.1599 3.9956 2.7902 2.55169 3.36525 1.39906ZM3.35019 0.339355C3.35019 0.339355 1.66269 3.39544 1.65264 4.52043C1.64511 5.64543 2.42106 6.52434 3.39036 6.52434H3.40292C4.36721 6.52434 5.1532 5.66803 5.16073 4.55057C5.17078 3.42557 3.35019 0.339355 3.35019 0.339355Z" fill="#424242"/>
<path d="M12.9479 8.61335C12.9378 9.73835 12.1468 10.6424 11.1775 10.6348C10.2082 10.6273 9.42975 9.70821 9.43979 8.58572C9.44984 7.46073 11.1373 4.35693 11.1373 4.35693C11.1373 4.35693 12.9554 7.49086 12.9479 8.61335Z" fill="#81D4FA"/>
<path opacity="0.2" d="M11.1499 5.41664C11.7702 6.5768 12.4507 8.03578 12.4457 8.60832C12.4381 9.44956 11.8756 10.1326 11.18 10.1326C10.8586 10.1301 10.5548 9.97691 10.3237 9.70319C10.0726 9.40687 9.93701 9.01262 9.93952 8.58824C9.94455 8.01318 10.5748 6.56926 11.1499 5.41664ZM11.1348 4.35693C11.1348 4.35693 9.44734 7.46072 9.43729 8.58572C9.42725 9.71072 10.2057 10.6273 11.175 10.6348H11.1876C12.1519 10.6348 12.9378 9.73332 12.9454 8.61335C12.9554 7.49086 11.1348 4.35693 11.1348 4.35693Z" fill="#424242"/>
<path d="M20.7326 4.59577C20.7225 5.72077 19.9315 6.62479 18.9622 6.61725C17.9929 6.60972 17.2144 5.69064 17.2245 4.56815C17.2345 3.44315 18.922 0.339355 18.922 0.339355C18.922 0.339355 20.7401 3.47328 20.7326 4.59577Z" fill="#81D4FA"/>
<path opacity="0.2" d="M18.9345 1.39906C19.5548 2.55922 20.2353 4.0182 20.2303 4.59075C20.2228 5.43198 19.6603 6.11502 18.9647 6.11502C18.6432 6.11251 18.3394 5.95933 18.1084 5.68561C17.8572 5.3893 17.7216 4.99504 17.7241 4.57066C17.7292 3.9956 18.3595 2.55169 18.9345 1.39906ZM18.9195 0.339355C18.9195 0.339355 17.232 3.39544 17.2219 4.52043C17.2144 5.64543 17.9903 6.52434 18.9596 6.52434H18.9722C19.9365 6.52434 20.7225 5.66803 20.73 4.55057C20.7401 3.42557 18.9195 0.339355 18.9195 0.339355Z" fill="#424242"/>
<path d="M28.2659 8.61335C28.2558 9.73835 27.4648 10.6424 26.4955 10.6348C25.5262 10.6273 24.7477 9.70821 24.7578 8.58572C24.7678 7.46073 26.4553 4.35693 26.4553 4.35693C26.4553 4.35693 28.2734 7.49086 28.2659 8.61335Z" fill="#81D4FA"/>
<path opacity="0.2" d="M26.4679 5.41664C27.0882 6.5768 27.7687 8.03578 27.7637 8.60832C27.7561 9.44956 27.1936 10.1326 26.498 10.1326C26.1766 10.1301 25.8727 9.97691 25.6417 9.70319C25.3906 9.40687 25.255 9.01262 25.2575 8.58824C25.2625 8.01318 25.8928 6.56926 26.4679 5.41664ZM26.4528 4.35693C26.4528 4.35693 24.7653 7.41301 24.7553 8.53801C24.7452 9.66301 25.5237 10.5419 26.493 10.5419H26.5056C27.4698 10.5419 28.2558 9.68561 28.2634 8.56815C28.2734 7.44315 26.4528 4.35693 26.4528 4.35693Z" fill="#424242"/>
<path d="M22.779 16.7816H22.4902C22.3496 16.7816 22.2366 16.6661 22.2366 16.528V15.4306C22.2366 15.29 22.3521 15.177 22.4902 15.177H22.779C22.9196 15.177 23.0326 15.2925 23.0326 15.4306V16.528C23.0326 16.6686 22.9196 16.7816 22.779 16.7816Z" fill="#616161"/>
<path d="M15.1578 17.0136H14.869C14.7284 17.0136 14.6154 16.8981 14.6154 16.7599V15.6626C14.6154 15.5219 14.7309 15.4089 14.869 15.4089H15.1578C15.2984 15.4089 15.4114 15.5244 15.4114 15.6626V16.7599C15.4139 16.8981 15.2984 17.0136 15.1578 17.0136Z" fill="#616161"/>
<path d="M7.72204 16.7816H7.43325C7.29263 16.7816 7.17963 16.6661 7.17963 16.528V15.4306C7.17963 15.29 7.29514 15.177 7.43325 15.177H7.72204C7.86266 15.177 7.97566 15.2925 7.97566 15.4306V16.528C7.97566 16.6686 7.86015 16.7816 7.72204 16.7816Z" fill="#616161"/>
<path d="M29.8078 15.5413L29.5592 15.6166C29.4186 15.6593 29.2679 15.5765 29.2252 15.4333L28.9264 14.4188C28.8837 14.2757 28.9641 14.12 29.1072 14.0773L29.3558 14.002C29.4965 13.9593 29.6471 14.0421 29.6898 14.1853L29.9886 15.1998C30.0313 15.3454 29.951 15.4986 29.8078 15.5413Z" fill="#616161"/>
<path d="M0.191146 15.5413L0.439751 15.6166C0.580376 15.6593 0.731045 15.5765 0.773735 15.4333L1.07256 14.4188C1.11525 14.2757 1.0349 14.12 0.89176 14.0773L0.643155 14.002C0.50253 13.9593 0.35186 14.0421 0.309171 14.1853L0.0103427 15.1998C-0.0298358 15.3454 0.0505213 15.4986 0.191146 15.5413Z" fill="#616161"/>
<defs>
<linearGradient id="paint0_linear_348_1001" x1="8.81916" y1="2.54842" x2="19.1157" y2="20.3822" gradientUnits="userSpaceOnUse">
<stop stop-color="#BA68C8"/>
<stop offset="1" stop-color="#9C27B0"/>
</linearGradient>
</defs>
</svg>
