<svg width="228" height="200" viewBox="0 0 30 27" fill="none" xmlns="http://www.w3.org/2000/svg">
<path d="M9.18124 13.1222H0.937459C0.421857 13.1222 0 13.5441 0 14.0597V15.9346C0 16.4502 0.421857 16.872 0.937459 16.872H9.26913C10.2007 16.872 11.0737 17.5107 11.2261 18.4306C11.4194 19.6024 10.5171 20.6219 9.37459 20.6219C8.54846 20.6219 7.84536 20.0828 7.59342 19.3387C7.47038 18.9696 7.08954 18.747 6.70283 18.747H4.78104C4.20685 18.747 3.74398 19.2626 3.84944 19.825C4.35333 22.4089 6.63838 24.3717 9.36873 24.3717C12.7143 24.3717 15.3861 21.4363 14.9466 18.0087C14.5892 15.1729 12.0346 13.1222 9.18124 13.1222ZM0.937459 11.2473H20.6241C24.122 11.2473 26.8816 8.03648 26.12 4.40969C25.6747 2.28869 23.9579 0.571962 21.8369 0.126669C18.591 -0.552989 15.679 1.58559 15.1048 4.55031C14.9935 5.11278 15.4622 5.62253 16.0306 5.62253H17.9523C18.3449 5.62253 18.7199 5.39988 18.8429 5.03075C19.0949 4.28665 19.798 3.74761 20.6241 3.74761C21.7608 3.74761 22.6689 4.76709 22.4756 5.93892C22.3233 6.8588 21.4561 7.49744 20.5186 7.49744H0.937459C0.421857 7.49744 0 7.9193 0 8.4349V10.3098C0 10.8254 0.421857 11.2473 0.937459 11.2473ZM23.4365 13.1222H14.2787C15.4095 14.0948 16.2239 15.3955 16.6106 16.872H23.4365C24.9892 16.872 26.2489 18.1318 26.2489 19.6844C26.2489 21.2371 24.9892 22.4968 23.4365 22.4968C22.3877 22.4968 21.4854 21.9167 20.9991 21.0672C20.8292 20.7742 20.4893 20.6219 20.1495 20.6219H18.1691C17.5305 20.6219 17.0559 21.2547 17.2727 21.8582C18.3156 24.8229 21.4034 26.8267 24.8544 26.0943C27.2684 25.5846 29.2546 23.6569 29.8171 21.2488C30.819 16.9599 27.5672 13.1222 23.4365 13.1222Z" fill="#43CCF8"/>
</svg>
