<svg width="30" height="31" viewBox="0 0 30 31" fill="none" xmlns="http://www.w3.org/2000/svg" >
<path d="M29.375 23.7606H28.75C28.75 22.9919 28.825 22.1669 27.8813 21.5606C32.8188 15.5481 28.6 6.26062 20.625 6.26062C12.65 6.26062 8.42502 15.5419 13.3688 21.5606C12.4125 22.1731 12.5 23.0731 12.5 23.7606H11.875C11.7093 23.7606 11.5503 23.8265 11.4331 23.9437C11.3159 24.0609 11.25 24.2199 11.25 24.3856V27.5106C11.25 28.1737 11.5134 28.8095 11.9823 29.2784C12.4511 29.7472 13.087 30.0106 13.75 30.0106H27.5C28.1631 30.0106 28.7989 29.7472 29.2678 29.2784C29.7366 28.8095 30 28.1737 30 27.5106V24.3856C30 24.2199 29.9342 24.0609 29.817 23.9437C29.6998 23.8265 29.5408 23.7606 29.375 23.7606ZM20.625 7.51062C22.2166 7.51317 23.7723 7.98308 25.0991 8.86202C26.4259 9.74096 27.4654 10.9902 28.0885 12.4547C28.7116 13.9192 28.8908 15.5345 28.604 17.0999C28.3171 18.6654 27.5769 20.1122 26.475 21.2606H24.5625C30.1063 17.3669 27.2438 8.76062 20.625 8.76062C14.0063 8.76062 11.1438 17.3669 16.6875 21.2606H14.775C13.6732 20.1122 12.9329 18.6654 12.6461 17.0999C12.3592 15.5345 12.5385 13.9192 13.1616 12.4547C13.7846 10.9902 14.8241 9.74096 16.1509 8.86202C17.4777 7.98308 19.0335 7.51317 20.625 7.51062ZM20.625 21.2606C19.5125 21.2606 18.425 20.9307 17.4999 20.3126C16.5749 19.6946 15.8539 18.816 15.4282 17.7882C15.0025 16.7604 14.8911 15.6294 15.1081 14.5382C15.3251 13.4471 15.8609 12.4448 16.6475 11.6581C17.4342 10.8715 18.4365 10.3357 19.5276 10.1187C20.6188 9.90166 21.7498 10.0131 22.7776 10.4388C23.8054 10.8645 24.684 11.5855 25.302 12.5105C25.9201 13.4356 26.25 14.5231 26.25 15.6356C26.25 17.1275 25.6574 18.5582 24.6025 19.6131C23.5476 20.668 22.1169 21.2606 20.625 21.2606ZM14.5125 22.5106H26.875C27.0408 22.5106 27.1998 22.5765 27.317 22.6937C27.4342 22.8109 27.5 22.9699 27.5 23.1356V23.7606H13.75C13.75 23.0669 13.6563 22.5106 14.5125 22.5106ZM22.95 25.0106C22.5563 26.5919 22.95 26.2606 19.1 26.2606C18.525 26.2606 18.475 25.7544 18.3 25.0106H22.95ZM28.75 27.5106C28.75 27.8421 28.6183 28.1601 28.3839 28.3945C28.1495 28.6289 27.8315 28.7606 27.5 28.7606H13.75C13.4185 28.7606 13.1006 28.6289 12.8661 28.3945C12.6317 28.1601 12.5 27.8421 12.5 27.5106V25.0106H17.0125L17.2813 26.0919C17.383 26.4972 17.6172 26.857 17.9467 27.114C18.2762 27.3711 18.6821 27.5106 19.1 27.5106H22.15C22.5679 27.5106 22.9739 27.3711 23.3034 27.114C23.6329 26.857 23.8671 26.4972 23.9688 26.0919L24.2375 25.0106H28.75V27.5106Z" fill="white"/>
<path d="M9.375 16.2607H8.75V10.6357C8.75 10.4699 8.68415 10.3109 8.56694 10.1937C8.44973 10.0765 8.29076 10.0107 8.125 10.0107C8.125 1.47315 8.30625 1.26065 7.5875 0.548154C5.8375 -1.20185 1.90625 1.56065 1.88125 4.29815V10.0169C1.71549 10.0169 1.55652 10.0828 1.43931 10.2C1.3221 10.3172 1.25625 10.4761 1.25625 10.6419V16.2669H0.625C0.45924 16.2669 0.300269 16.3328 0.183058 16.45C0.065848 16.5672 0 16.7261 0 16.8919L0 27.5107C0 28.1737 0.263392 28.8096 0.732233 29.2784C1.20107 29.7473 1.83696 30.0107 2.5 30.0107H7.5C8.16304 30.0107 8.79893 29.7473 9.26777 29.2784C9.73661 28.8096 10 28.1737 10 27.5107V16.8857C10 16.7199 9.93415 16.5609 9.81694 16.4437C9.69973 16.3265 9.54076 16.2607 9.375 16.2607ZM4.15625 2.2919C4.83125 1.6169 6.175 0.910654 6.7 1.43565C7.1 1.83565 6.81875 3.0044 5.84375 3.9794C4.86875 4.9544 3.7 5.2294 3.3 4.83565C2.9 4.4419 3.18125 3.2669 4.15625 2.2919ZM3.125 6.14815C4.375 6.5544 5.80625 5.78565 6.725 4.86065C6.9375 4.6544 6.875 3.82315 6.875 10.0107H3.125V6.14815ZM2.5 11.2607H7.5V16.2607H2.5V11.2607ZM8.75 17.5107V18.7607H1.25V17.5107H8.75ZM7.5 28.7607H2.5C2.16848 28.7607 1.85054 28.629 1.61612 28.3945C1.3817 28.1601 1.25 27.8422 1.25 27.5107V20.0107H8.75V27.5107C8.75 27.8422 8.6183 28.1601 8.38388 28.3945C8.14946 28.629 7.83152 28.7607 7.5 28.7607Z" fill="white"/>
</svg>
