<svg width="42" height="43" viewBox="0 0 42 43" fill="none" xmlns="http://www.w3.org/2000/svg">
<path d="M10.9209 5.97449H7.48113C6.53125 5.97449 5.76123 6.74451 5.76123 7.69438V14.574C5.76123 15.5238 6.53125 16.2939 7.48113 16.2939H10.9209C11.8708 16.2939 12.6408 15.5238 12.6408 14.574V7.69438C12.6408 6.74451 11.8708 5.97449 10.9209 5.97449Z" stroke="black" stroke-width="3.43979" stroke-linecap="round" stroke-linejoin="round"/>
<path d="M31.5597 33.4929C33.4594 33.4929 34.9995 31.9528 34.9995 30.0531C34.9995 28.1533 33.4594 26.6133 31.5597 26.6133C29.6599 26.6133 28.1199 28.1533 28.1199 30.0531C28.1199 31.9528 29.6599 33.4929 31.5597 33.4929Z" stroke="black" stroke-width="3.43979" stroke-linecap="round" stroke-linejoin="round"/>
<path d="M17.8005 9.41431H29.8398C34.5884 9.41431 38.4393 14.8045 38.4393 21.4536V30.0531H34.9995" stroke="black" stroke-width="3.43979" stroke-linecap="round" stroke-linejoin="round"/>
<path d="M28.12 30.0531H14.3608" stroke="black" stroke-width="3.43979" stroke-linecap="round" stroke-linejoin="round"/>
<path d="M28.1199 9.41431L30.6997 21.4536H38.4393" stroke="black" stroke-width="3.43979" stroke-linecap="round" stroke-linejoin="round"/>
<path d="M16.9407 18.0138H29.8399" stroke="black" stroke-width="3.43979" stroke-linecap="round" stroke-linejoin="round"/>
<path d="M21.2402 9.41431V18.0138" stroke="black" stroke-width="3.43979" stroke-linecap="round" stroke-linejoin="round"/>
<path d="M9.20093 16.2939V35.2128" stroke="black" stroke-width="3.43979" stroke-linecap="round" stroke-linejoin="round"/>
</svg>
