<svg width="43" height="43" viewBox="0 0 43 43" fill="none" xmlns="http://www.w3.org/2000/svg">
<path d="M5.62374 1.00455C2.66386 1.00455 1 2.53487 1 5.66159V37.8936C1 40.8183 2.4963 42.3496 5.45339 42.3496H37.8215C40.7794 42.3496 42.2775 40.895 42.2775 37.8936V5.66159C42.2775 2.61105 40.7794 1.00455 37.729 1.00455C37.7287 1.00455 5.61357 0.994311 5.62374 1.00455Z" fill="#111111" stroke="#EEEEEE" stroke-width="0.244037"/>
<path d="M21.5779 6.24634C21.6158 6.24634 21.6552 6.24779 21.6936 6.24809C21.7322 6.24779 21.7711 6.24634 21.8093 6.24634H21.5779ZM21.6936 6.24809C18.9993 6.26944 15.349 7.02806 13.8254 7.66289C12.2799 8.30683 11.2493 8.95107 10.9274 10.5609L9.76855 19.4862V31.7829H11.7654V33.7114C11.7654 36.0627 15.2051 36.0627 15.2051 33.7114V31.7829H21.5586H21.5779H28.182V33.7114C28.182 36.0627 31.6235 36.0627 31.6235 33.7114V31.7829H33.6203V19.4862L32.4615 10.5609C32.1396 8.95107 31.109 8.30683 29.5635 7.66289C28.0398 7.02799 24.3879 6.2693 21.6936 6.24809ZM16.7882 8.50091H21.5779H26.6007C27.5666 8.50091 27.5666 9.94902 26.6007 9.94902H21.5673H16.7882C15.8223 9.94902 15.8223 8.50091 16.7882 8.50091ZM14.183 11.4129H21.5673H29.2041C30.2245 11.4129 30.4915 11.9308 30.6154 12.7173L31.5183 19.1899C31.6024 19.8104 31.4217 20.4259 30.5646 20.4259H21.5779H12.8226C11.9654 20.4259 11.7865 19.8104 11.8706 19.1899L12.7735 12.7173C12.8974 11.9308 13.1627 11.4129 14.183 11.4129ZM13.487 24.6265C14.3985 24.6265 15.1367 25.3665 15.1367 26.278C15.1367 27.1895 14.3985 27.9277 13.487 27.9277C12.5755 27.9277 11.8355 27.1895 11.8355 26.278C11.8355 25.3665 12.5755 24.6265 13.487 24.6265ZM29.9019 24.6265C30.8134 24.6265 31.5516 25.3665 31.5516 26.278C31.5516 27.1895 30.8134 27.9277 29.9019 27.9277C28.9904 27.9277 28.2504 27.1895 28.2504 26.278C28.2504 25.3665 28.9904 24.6265 29.9019 24.6265Z" fill="white"/>
<path opacity="0.1" d="M41.2448 21.644C41.245 24.2137 40.739 26.7583 39.7557 29.1324C38.7724 31.5066 37.3311 33.6638 35.5141 35.4809C33.6971 37.2981 31.54 38.7395 29.1659 39.7229C26.7918 40.7063 24.2472 41.2125 21.6775 41.2125C19.1078 41.2125 16.5632 40.7063 14.1891 39.7229C11.815 38.7395 9.65786 37.2981 7.84085 35.4809C6.02384 33.6638 4.58254 31.5066 3.59925 29.1324C2.61597 26.7583 2.10996 24.2137 2.11011 21.644C2.10996 19.0742 2.61597 16.5297 3.59925 14.1555C4.58254 11.7813 6.02384 9.62412 7.84085 7.807C9.65786 5.98988 11.815 4.54845 14.1891 3.56503C16.5632 2.5816 19.1078 2.07544 21.6775 2.07544C24.2472 2.07544 26.7918 2.5816 29.1659 3.56503C31.54 4.54845 33.6971 5.98988 35.5141 7.807C37.3311 9.62412 38.7724 11.7813 39.7557 14.1555C40.739 16.5297 41.245 19.0742 41.2448 21.644Z" fill="white" stroke="white" stroke-width="1.70452"/>
<path d="M41.2448 21.644C41.245 24.2137 40.739 26.7583 39.7557 29.1324C38.7724 31.5066 37.3311 33.6638 35.5141 35.4809C33.6971 37.2981 31.54 38.7395 29.1659 39.7229C26.7918 40.7063 24.2472 41.2125 21.6775 41.2125C19.1078 41.2125 16.5632 40.7063 14.1891 39.7229C11.815 38.7395 9.65786 37.2981 7.84085 35.4809C6.02384 33.6638 4.58254 31.5066 3.59925 29.1324C2.61597 26.7583 2.10996 24.2137 2.11011 21.644C2.10996 19.0742 2.61597 16.5297 3.59925 14.1555C4.58254 11.7813 6.02384 9.62412 7.84085 7.807C9.65786 5.98988 11.815 4.54845 14.1891 3.56503C16.5632 2.5816 19.1078 2.07544 21.6775 2.07544C24.2472 2.07544 26.7918 2.5816 29.1659 3.56503C31.54 4.54845 33.6971 5.98988 35.5141 7.807C37.3311 9.62412 38.7724 11.7813 39.7557 14.1555C40.739 16.5297 41.245 19.0742 41.2448 21.644Z" stroke="white" stroke-width="1.70452"/>
</svg>
