<svg width="31" height="31" viewBox="0 0 31 31" fill="none" xmlns="http://www.w3.org/2000/svg">
<path d="M30.6017 15.9907L16.6517 0.490578C16.0642 -0.163526 14.9358 -0.163526 14.3483 0.490578L0.39825 15.9907C-0.0125028 16.4448 -0.114804 17.0989 0.134748 17.6585C0.38275 18.218 0.937653 18.5776 1.54991 18.5776H4.64993V29.4277C4.64993 30.2833 5.34278 30.9777 6.19994 30.9777H10.85C11.7071 30.9777 12.4 30.2833 12.4 29.4277V23.2277H18.6V29.4277C18.6 30.2833 19.2929 30.9777 20.15 30.9777H24.8001C25.6572 30.9777 26.3501 30.2833 26.3501 29.4277V18.5776H29.4501C30.0623 18.5776 30.6172 18.218 30.8652 17.6585C31.1148 17.0989 31.0125 16.4464 30.6017 15.9907Z" fill="black"/>
</svg>
