<svg width="15" height="27" viewBox="0 0 15 27" fill="none" xmlns="http://www.w3.org/2000/svg">
<path d="M5.57339 18.4737C5.57339 16.5553 5.73968 15.1757 6.07225 14.3349C6.40482 13.4941 7.11009 12.5763 8.18807 11.5816C9.12844 10.7289 9.84518 9.98882 10.3383 9.36118C10.8314 8.73355 11.078 8.01711 11.078 7.21184C11.078 6.24079 10.7626 5.43553 10.1319 4.79605C9.50115 4.15658 8.62385 3.83684 7.5 3.83684C6.33028 3.83684 5.44151 4.20395 4.83372 4.93816C4.22592 5.67237 3.79587 6.41842 3.54358 7.17632L0 5.61316C0.481651 4.09737 1.36468 2.78289 2.64908 1.66974C3.93349 0.556579 5.55046 0 7.5 0C9.90826 0 11.7603 0.692763 13.0562 2.07829C14.3521 3.46382 15 5.12763 15 7.06974C15 8.25395 14.7534 9.26645 14.2603 10.1072C13.7672 10.948 12.9931 11.9013 11.9381 12.9671C10.8142 14.0803 10.1319 14.927 9.89106 15.5072C9.65023 16.0875 9.52982 17.0763 9.52982 18.4737H5.57339ZM7.5 27C6.74312 27 6.09518 26.7217 5.55619 26.1651C5.0172 25.6086 4.74771 24.9395 4.74771 24.1579C4.74771 23.3763 5.0172 22.7072 5.55619 22.1507C6.09518 21.5941 6.74312 21.3158 7.5 21.3158C8.25688 21.3158 8.90482 21.5941 9.44381 22.1507C9.9828 22.7072 10.2523 23.3763 10.2523 24.1579C10.2523 24.9395 9.9828 25.6086 9.44381 26.1651C8.90482 26.7217 8.25688 27 7.5 27Z" fill="white"/>
</svg>
